# xmcd
#
# Track frame offsets:
#	150
#	20172
#	43446
#	64102
#	80277
#	97798
#	118446
#	135814
#	153389
#	178165
#	196181
#	215511
#
# Disc length: 3146 seconds
#
# Revision: 1
# Processed by: cddbd v1.5.2PL0 Copyright (c) Steve Scherf et al.
# Submitted via: audiograbber 1.83.01
#
DISCID=a50c480c
DTITLE=Mariana Ramos - Suavidanca
DYEAR=2010
DGENRE=Ethnic
TTITLE0=Beleza
TTITLE1=Nzinga Mbandi
TTITLE2=Dancador
TTITLE3=Discunfiado
TTITLE4=Ultimo Chance
TTITLE5=Si Jamais
TTITLE6=Jal Da Milha
TTITLE7=Lago Di Fogo
TTITLE8=Mariana
TTITLE9=So Samba
TTITLE10=Ess Bejo Doce e Salgode
TTITLE11=Irmon
EXTD=
EXTT0=
EXTT1=feat. Angelique Kidjo
EXTT2=
EXTT3=feat. Jorge Humberto
EXTT4=
EXTT5=
EXTT6=
EXTT7=
EXTT8=
EXTT9=
EXTT10=
EXTT11=
PLAYORDER=
